#!OML:ASF F:\VICON\USERDATA\INSTALL\rory3\rory3.ASF
:FULLY-SPECIFIED
:DEGREES
136
root 4.3657 17.4905 3.02667 17.4676 -22.3311 -4.99331
lowerback -4.30787 4.71024 3.55797
upperback -9.57886 6.26473 -0.254009
thorax -7.22663 2.83704 -2.34168
lowerneck -10.3267 6.07255 3.55992
upperneck 35.6399 7.13088 2.76829
head 13.857 3.92634 1.52147
rclavicle -1.48592e-014 -1.21259e-014
rhumerus 18.2647 -17.7307 -9.49926
rradius 118.065
rwrist -55.4087
rhand -7.10758 -45.8854
rfingers 7.12502
rthumb 18.7674 -75
lclavicle -1.48592e-014 -1.21259e-014
lhumerus 27.0381 29.201 -7.11356
lradius 55.0311
lwrist 48.665
lhand -29.9161 -28.4402
lfingers 7.12502
lthumb -3.23646 1.51499
rfemur -16.685 -5.71315 0.299567
rtibia 21.5143
rfoot -27.8842 -30.7825
rtoes 47.5088
lfemur -26.0989 2.04516 -24.7347
ltibia 26.2875
lfoot -14.746 14.4739
ltoes 12.8718
137
root 4.37847 17.4926 3.01438 17.4911 -22.3955 -5.0352
lowerback -4.12652 4.72116 3.53897
upperback -9.55085 6.28882 -0.249647
thorax -7.30059 2.8488 -2.34214
lowerneck -10.6852 5.95125 3.67491
upperneck 35.9362 6.99943 2.50581
head 14.0907 3.84375 1.40539
rclavicle -5.55106e-014 -2.10712e-014
rhumerus 18.2925 -17.6924 -9.54656
rradius 118.128
rwrist -55.561
rhand -7.08041 -45.8734
rfingers 7.12502
rthumb 18.7935 -74.9856
lclavicle -5.55106e-014 -2.10712e-014
lhumerus 27.2689 29.5424 -6.5781
lradius 55.4266
lwrist 48.7672
lhand -30.2844 -28.675
lfingers 7.12502
lthumb -3.59213 1.2745
rfemur -17.101 -5.8767 0.38643
rtibia 21.8699
rfoot -26.2947 -32.3172
rtoes 46.2553
lfemur -26.1815 2.04195 -24.7146
ltibia 26.2913
lfoot -14.6734 14.4415
ltoes 12.6169
138
root 4.39175 17.494 3.01809 17.576 -22.4988 -5.13042
lowerback -4.25311 4.74085 3.63652
upperback -9.51732 6.30972 -0.212956
thorax -7.18479 2.85745 -2.34349
lowerneck -10.7276 5.88805 3.50425
upperneck 36.1328 6.93506 2.53945
head 14.1785 3.79498 1.44669
rclavicle 7.34012e-014 3.63776e-014
rhumerus 18.3564 -17.5198 -9.56484
rradius 118.147
rwrist -55.5863
rhand -7.31379 -45.6244
rfingers 7.12502
rthumb 18.569 -74.7582
lclavicle 7.34012e-014 3.63776e-014
lhumerus 27.3478 29.6858 -6.21924
lradius 55.783
lwrist 48.971
lhand -29.7405 -27.7522
lfingers 7.12502
lthumb -3.06683 2.20547
rfemur -17.5241 -6.1574 0.521514
rtibia 22.1629
rfoot -22.9176 -34.7952
rtoes 43.5921
lfemur -26.259 2.06905 -24.673
ltibia 26.346
lfoot -14.7253 14.4461
ltoes 12.1607
139
root 4.40377 17.4879 3.03106 17.5978 -22.4819 -5.10214
lowerback -4.56574 4.69096 3.67551
upperback -9.43393 6.22456 -0.193593
thorax -6.91832 2.82166 -2.31079
lowerneck -10.6211 5.85454 3.28526
upperneck 36.1549 6.89619 2.6681
head 14.1457 3.76559 1.52489
rclavicle 8.17875e-014 3.8763e-014
rhumerus 18.5519 -17.2403 -9.71041
rradius 118.066
rwrist -55.2323
rhand -7.50313 -45.3186
rfingers 7.12502
rthumb 18.3869 -74.4696
lclavicle 8.17875e-014 3.8763e-014
lhumerus 27.2553 29.77 -6.11766
lradius 56.1427
lwrist 49.3726
lhand -28.921 -27.1808
lfingers 7.12502
lthumb -2.27545 2.78683
rfemur -17.7264 -6.70765 0.523295
rtibia 22.3939
rfoot -22.9257 -34.8872
rtoes 43.3243
lfemur -26.2676 2.03955 -24.7561
ltibia 26.4497
lfoot -14.9004 14.43
ltoes 10.5104
140
root 4.41205 17.4832 3.0353 17.63 -22.4089 -5.23143
lowerback -4.75702 4.6376 3.80367
upperback -9.32075 6.1421 -0.141679
thorax -6.68435 2.78184 -2.30318
lowerneck -10.8626 5.74663 3.23025
upperneck 36.2271 6.74242 2.64982
head 14.2309 3.68553 1.51641
rclavicle 8.93289e-015 -1.17283e-014
rhumerus 18.8657 -17.0877 -9.99813
rradius 117.93
rwrist -54.9136
rhand -7.51105 -45.1978
rfingers 7.12502
rthumb 18.3793 -74.3495
lclavicle 8.93289e-015 -1.17283e-014
lhumerus 27.2863 30.0571 -5.88773
lradius 56.4845
lwrist 49.5527
lhand -29.1709 -27.7822
lfingers 7.12502
lthumb -2.51675 2.18268
rfemur -17.811 -6.97965 0.667455
rtibia 22.5954
rfoot -26.0709 -32.9672
rtoes 45.3142
lfemur -26.283 2.08755 -24.6671
ltibia 26.5576
lfoot -14.9511 14.4018
ltoes 9.90308
141
root 4.42152 17.483 3.0369 17.6551 -22.5048 -5.41299
lowerback -4.70002 4.64027 3.87937
upperback -9.32605 6.15171 -0.0720803
thorax -6.72272 2.78277 -2.27762
lowerneck -10.7216 5.74467 3.26428
upperneck 36.3268 6.79997 2.47218
head 14.2555 3.69019 1.44563
rclavicle 1.26228e-014 -7.95139e-015
rhumerus 19.0853 -16.848 -10.2494
rradius 117.903
rwrist -54.9397
rhand -7.21287 -45.376
rfingers 7.12502
rthumb 18.6661 -74.5005
lclavicle 1.26228e-014 -7.95139e-015
lhumerus 27.3055 30.1384 -5.59179
lradius 56.9428
lwrist 49.6612
lhand -29.8437 -28.2275
lfingers 7.12502
lthumb -3.16651 1.72876
rfemur -17.993 -7.00581 0.804925
rtibia 22.8696
rfoot -28.484 -31.1966
rtoes 46.7875
lfemur -26.2816 2.14945 -24.5407
ltibia 26.6169
lfoot -14.9345 14.4984
ltoes 11.9211
142
root 4.43498 17.4779 3.03339 17.5287 -22.6358 -5.32213
lowerback -4.3554 4.60872 3.68128
upperback -9.40448 6.13168 -0.0484554
thorax -7.02749 2.77724 -2.18055
lowerneck -10.8314 5.65286 3.16198
upperneck 36.6688 6.69945 2.43666
head 14.4355 3.62333 1.4505
rclavicle 1.27222e-014 2.50469e-014
rhumerus 19.1517 -16.4533 -10.3941
rradius 117.95
rwrist -54.9595
rhand -7.25249 -45.5285
rfingers 7.12502
rthumb 18.628 -74.6565
lclavicle 1.27222e-014 2.50469e-014
lhumerus 27.2615 30.0002 -5.32888
lradius 57.4283
lwrist 49.8791
lhand -30.3581 -28.4633
lfingers 7.12502
lthumb -3.6633 1.48494
rfemur -18.1603 -7.09578 0.630499
rtibia 23.2119
rfoot -31.2317 -28.6787
rtoes 48.2657
lfemur -26.2347 2.01715 -24.6552
ltibia 26.6741
lfoot -14.9931 14.6485
ltoes 10.1007
143
root 4.45012 17.4763 3.02684 17.3715 -22.7435 -5.19113
lowerback -4.63272 4.69813 3.74062
upperback -8.95903 6.21951 -0.206086
thorax -6.35477 2.83651 -2.32608
lowerneck -11.3923 5.50433 3.03959
upperneck 36.6254 6.46373 2.4966
head 14.533 3.50874 1.48044
rclavicle -6.08778e-015 1.55052e-014
rhumerus 19.0402 -16.8601 -10.4552
rradius 117.927
rwrist -54.6396
rhand -7.70947 -45.4201
rfingers 7.12502
rthumb 18.1884 -74.5898
lclavicle -6.08778e-015 1.55052e-014
lhumerus 27.6659 30.6611 -4.8546
lradius 57.6614
lwrist 49.9265
lhand -30.4474 -28.5336
lfingers 7.12502
lthumb -3.74953 1.41312
rfemur -18.5725 -7.5675 0.600631
rtibia 23.5839
rfoot -27.4471 -32.3761
rtoes 45.9204
lfemur -26.178 1.90805 -24.8099
ltibia 26.7191
lfoot -15.0328 14.7559
ltoes 9.56396
